# xmcd CD database file
#
# Track frame offsets:
#	150
#	16652
#	35785
#	53810
#	72975
#	90032
#	106165
#	122857
#	137402
#	150795
#	172940
#	187397
#	206547
#	219275
#
# Disc length: 3155 seconds
#
# Revision: 0
# Processed by: cddbd v1.5.1PL0 Copyright (c) Steve Scherf et al.
# Submitted via: CDex 1.51
#
DISCID=af0c510e
DTITLE=Wenche Gausdal - Den Lille Forskjellen...
DYEAR=1900
DGENRE=Jazz
TTITLE0=Nærhet
TTITLE1=Den Lille Forskjellen
TTITLE2=Å Ha Tid
TTITLE3=Et Lite Sekund
TTITLE4=Ho Kom Frå Dalen
TTITLE5=Prinsessen I Tårnet
TTITLE6=Helt Vanlig
TTITLE7=Ensom
TTITLE8=Og Dagen Gjør Tanken Til Lengsel
TTITLE9=Sjalu Blues
TTITLE10=Skyggen
TTITLE11=Lasse Lasse Kjempestor
TTITLE12=God Natt
TTITLE13=Bacalao
EXTD=
EXTT0=
EXTT1=
EXTT2=
EXTT3=
EXTT4=
EXTT5=
EXTT6=
EXTT7=
EXTT8=
EXTT9=
EXTT10=
EXTT11=
EXTT12=
EXTT13=
PLAYORDER=
